<?xml version="1.0" encoding="utf-8"?>
<!-- Generator: Adobe Illustrator 19.2.0, SVG Export Plug-In . SVG Version: 6.00 Build 0)  -->
<svg version="1.1" id="Capa_1" xmlns="http://www.w3.org/2000/svg" xmlns:xlink="http://www.w3.org/1999/xlink" x="0px" y="0px"
	 viewBox="0 0 345.6 322.9" width="48px" height="48px" style="enable-background:new 0 0 345.6 322.9;" xml:space="preserve">
<style type="text/css">
	.st0{fill:#797979;}
</style>
<g>
	<g>
		<path class="st0" d="M257.7,233.8c0,0,0-69.1,0-75.9c0-6.3-0.2-156.8-0.2-156.8l-3.4,0c0,0-28,15.8-28,133.1
			c21.5,5.9,12.5,29.4,10.8,32.4c0,6,0.5,67.3,0.5,67.3l0.1,0c0,0.1,0,0.1,0,0.2c0,5.6,4.5,10.2,10.2,10.2c5.6,0,10.2-4.6,10.2-10.2
			C257.7,234,257.7,233.9,257.7,233.8L257.7,233.8z"/>
		<path class="st0" d="M208,5.4l-6.1,0l1.8,63.8l-7.3,0V5.4l-5.3,0v64.2H185V5.4l-5.9,0l0,64.2h-7.2L174,5.4h-5.6l-6.8,54.3
			c0,0-0.2,2-0.2,2.8c0,8.4,3.9,15.9,10,20.7c20,22.6,6.4,45.6,6.4,51.1c0,6.1,0,99.3,0,99.3h0c0,0.1,0,0.1,0,0.2
			c0,5.7,4.6,10.3,10.3,10.3c5.7,0,10.4-4.6,10.4-10.3c0-0.1,0-0.2,0-0.2h0c0,0,0-92.1,0-99.1c0-6.3-11.6-32.8,7.7-52.5
			c0,0,0.1-0.1,0.1-0.1c4.7-4.5,7.8-10.6,8.3-17.5c0-0.5,0-1.7,0-1.7L208,5.4z"/>
		<path class="st0" d="M115.7,0L115.7,0c-0.1,0-0.5,0-0.6,0c0,0,0,0,0,0c-22.4,0.4-35,21.8-35,45.1c0,23.5,14.1,40.3,26.5,44
			c6.8,9.5,2.3,31.8-2.5,44.7c0,6.2,0,100.7,0,100.7h0c0,0.1,0,0.1,0,0.2c0,5.8,4.7,10.5,10.5,10.5c0.3,0,1.4,0,1.7,0
			c5.8,0,10.5-4.7,10.5-10.5c0-0.1,0-0.1,0-0.2h0c0,0,0-94.5,0-100.7c-4.8-12.9-9.2-35.3-2.5-44.7c12.3-3.7,26.5-20.5,26.5-44
			C150.8,21.8,138.1,0.4,115.7,0z M104,80.1c-1.4-1.1-3.2-2.8-5.1-5.1c-1.9-2.3-3.9-5.1-5.7-8.3c-0.9-1.6-1.7-3.4-2.5-5.2
			c-0.8-1.9-1.4-3.8-1.8-5.9c-0.8-4.2-0.6-8.2-0.2-11.9c0.4-3.7,1.2-7.1,2.1-9.9c0.9-2.8,1.8-5.1,2.6-6.6c0.8-1.6,1.4-2.3,1.4-2.3
			s-0.1,1-0.2,2.7c-0.1,1.7-0.1,4-0.2,6.9c-0.1,5.6-0.5,13.3,0.5,20c0.2,1.6,0.8,3.4,1.3,5c0.5,1.7,1.1,3.4,1.8,4.9
			c1.3,3.2,2.6,6.2,3.8,8.8c1.2,2.6,2.2,4.7,3.1,6.1c0.8,1.5,1.5,2.1,1.5,2C106.5,81.4,105.4,81.2,104,80.1z"/>
	</g>
</g>
<g>
	<path class="st0" d="M0,283.1h9.1v31.8h19.7v7.4H0V283.1z"/>
	<path class="st0" d="M31.8,302.7c0-11.6,9.1-20.3,21.4-20.3c12.3,0,21.4,8.6,21.4,20.3s-9.1,20.3-21.4,20.3
		C40.9,322.9,31.8,314.3,31.8,302.7z M65.5,302.7c0-7.4-5.3-12.5-12.3-12.5S41,295.2,41,302.7c0,7.4,5.3,12.5,12.3,12.5
		S65.5,310.1,65.5,302.7z"/>
	<path class="st0" d="M80.2,302.7c0-11.8,9.1-20.3,21.3-20.3c6.8,0,12.4,2.5,16.1,6.9l-5.8,5.4c-2.6-3-5.9-4.6-9.9-4.6
		c-7.3,0-12.5,5.2-12.5,12.5c0,7.4,5.2,12.5,12.5,12.5c3.9,0,7.2-1.6,9.9-4.6l5.8,5.4c-3.7,4.5-9.4,7-16.2,7
		C89.3,322.9,80.2,314.5,80.2,302.7z"/>
	<path class="st0" d="M149.9,313.9h-18.2l-3.5,8.4h-9.3l17.5-39.2h9l17.5,39.2h-9.5L149.9,313.9z M147,307l-6.2-15l-6.2,15H147z"/>
	<path class="st0" d="M174.2,290.5h-12.5v-7.4h34.2v7.4h-12.5v31.8h-9.1V290.5z"/>
	<path class="st0" d="M201.8,283.1h9.1v39.2h-9.1V283.1z"/>
	<path class="st0" d="M218.8,302.7c0-11.6,9.1-20.3,21.4-20.3c12.3,0,21.4,8.6,21.4,20.3s-9.1,20.3-21.4,20.3
		C227.9,322.9,218.8,314.3,218.8,302.7z M252.6,302.7c0-7.4-5.3-12.5-12.3-12.5s-12.3,5.1-12.3,12.5c0,7.4,5.3,12.5,12.3,12.5
		S252.6,310.1,252.6,302.7z"/>
	<path class="st0" d="M305.6,283.1v39.2h-7.4l-19.5-23.8v23.8h-9v-39.2h7.5l19.5,23.8v-23.8H305.6z"/>
	<path class="st0" d="M313,318.4l3.1-6.8c3.3,2.4,8.2,4.1,12.9,4.1c5.4,0,7.6-1.8,7.6-4.2c0-7.3-22.8-2.3-22.8-16.9
		c0-6.7,5.4-12.2,16.5-12.2c4.9,0,10,1.2,13.6,3.5l-2.8,6.9c-3.6-2.1-7.4-3.1-10.9-3.1c-5.4,0-7.4,2-7.4,4.5
		c0,7.2,22.8,2.2,22.8,16.6c0,6.6-5.4,12.2-16.6,12.2C322.7,322.9,316.5,321.1,313,318.4z"/>
</g>
</svg>
