<?xml version="1.0" encoding="utf-8"?>
<!-- Generator: Adobe Illustrator 19.2.0, SVG Export Plug-In . SVG Version: 6.00 Build 0)  -->
<svg version="1.1" id="Layer_1" xmlns="http://www.w3.org/2000/svg" xmlns:xlink="http://www.w3.org/1999/xlink" x="0px" y="0px" width="200px" height="200px"
	 viewBox="0 0 142.6 83.1" style="enable-background:new 0 0 142.6 83.1;" xml:space="preserve">
<style type="text/css">
	.st0{fill:#94CED7;}
	.st1{fill:#333333;}
	.st2{fill:#7A7A7A;}
</style>
<path class="st0" d="M44.3,29.4L48.4,13l7.6,1.9l-4.3,16.4C51.8,31.3,44.3,29.4,44.3,29.4z M84.2,31.3c0.3,0.6,0.4,1.3,0.3,2
	c-0.2,1.8-1.5,3.1-3.2,3.5c-0.6,1.2-1.6,1.9-2.8,2.2c-0.5,1.1-1.6,1.9-2.8,2.2c-0.7,1.4-2.1,2.2-3.6,2.2c-1.1,0-2.2-0.4-2.9-1.2
	c-2,0.9-4.1-0.1-4.8-1.9c-1.3-0.1-2.4-1-2.9-2.2c-1.3-0.2-2.4-1-2.9-2.2c-2.6-0.3-4-3.1-2.6-5.4c-0.5-0.1-1.1-0.2-1.6-0.3l0.8-3.2
	c1.1,0.2,2.2,0.5,3.1,0.8c2-1.4,4.7-0.6,5.5,1.5c1.3,0.1,2.4,1,2.9,2.2c1.3,0.1,2.4,1,2.9,2.2c1.6,0.2,2.9,1.4,3.1,3.1l0,0.5l1,0.9
	c0.5,0.6,1.5,0.7,2.1,0.2c0.6-0.5,0.7-1.4,0.2-2l-3.2-2.8c-0.3-0.3,0.1-0.8,0.5-0.5l3.2,2.8c0.6,0.6,1.5,0.7,2.1,0.2
	c0.6-0.5,0.7-1.4,0.1-2l-4.1-3.5c-0.4-0.3,0.1-0.8,0.5-0.5l4.2,3.6c0.5,0.6,1.5,0.7,2.1,0.2c0.6-0.5,0.8-1.3,0-2.2
	c-2.7-2.4-5.8-5.2-9-8.2c-0.8,1.1-4.7,3.3-7.1,3.3c-2.4,0-3.9-1.5-4.2-2.9c-0.3-1.3,0.1-2.5,1.2-3.1c1.2-0.7,2.3-1.7,3.4-2.7
	c-1.7-1.3-2.6-0.9-4.5,0c-1.1,0.5-2.4,1.1-4,1.4l0.9-3.6c2.9-1.1,5.5-3.5,9.8-0.2l1.1-1.2c0.9-1,2-1.5,3.3-1.5c0.9,0,2,0.3,3.1,0.9
	c3.3,1.7,5,2.7,7.5,2.8l0.9,3.3h0c-3.9,0.1-5.8-1.1-9.8-3.2c-1.1-0.6-1.9-0.7-2.4-0.1c-2.1,2.4-4.4,5-6.9,6.6c1.2,1,4.4-1,5.6-2
	c0.5-0.4,1.4-1,2.4-1c1.2,0,2.1,0.7,2.7,1.3c1.5,1.5,5.6,5.2,7.4,6.8c0.9-0.5,1.9-0.9,2.8-1.3l0.8,3.2C85.5,30.6,84.9,31,84.2,31.3z
	 M60.3,33.2l1.3-1.6c0.5-0.7,0.5-1.6-0.2-2c-0.6-0.5-1.6-0.3-2.1,0.3l-1.3,1.6c-0.5,0.6-0.5,1.6,0.2,2C58.7,34,59.7,33.9,60.3,33.2z
	 M63.1,35.4l1.3-1.6c0.5-0.6,0.5-1.6-0.2-2c-0.6-0.5-1.6-0.3-2.1,0.3l-1.3,1.6c-0.5,0.7-0.5,1.5,0.2,2
	C61.6,36.2,62.6,36.1,63.1,35.4z M66,37.6l1.3-1.6c0.5-0.6,0.5-1.6-0.2-2c-0.6-0.5-1.6-0.3-2.1,0.3l-1.3,1.6c-0.5,0.7-0.5,1.6,0.2,2
	C64.5,38.3,65.5,38.2,66,37.6z M70.1,36.1c-0.6-0.5-1.6-0.3-2.1,0.3L66.6,38c-0.5,0.6-0.5,1.6,0.2,2c0.6,0.5,1.6,0.3,2.1-0.3
	l1.3-1.6C70.8,37.5,70.7,36.5,70.1,36.1z M73.2,38.5l-0.5-0.5c-0.1,0.5-0.4,1-0.7,1.4l-0.8,1c0.3,0.2,0.6,0.4,1,0.4
	c0.3,0,0.6-0.1,0.9-0.3C73.6,40,73.7,39.1,73.2,38.5z M84.4,14.9l4.3,16.4l7.5-1.9L92.1,13C92.1,13,84.4,14.9,84.4,14.9z M67.2,0
	l-2.1,0.4l1.1,6.4l2.1-0.4C68.3,6.4,67.2,0,67.2,0z M75.5,0.4L73.3,0l-1.1,6.4l2.1,0.4C74.3,6.8,75.5,0.4,75.5,0.4z M83.3,3L81.4,2
	l-3.3,5.6L80,8.7L83.3,3z M59.1,2L57.3,3l3.3,5.6l1.9-1.1L59.1,2z"/>
<g>
	<path class="st1" d="M20.1,54.2l-4.3,11.7h-2.6l-3-8.1L7,65.9H4.4L0.1,54.2h2.6l3.1,8.7L9,54.2h2.3l3.2,8.7l3.2-8.7H20.1z"/>
	<path class="st1" d="M34.1,59v6.9h-2.6v-1.4c-0.7,1-1.9,1.6-3.7,1.6c-2.7,0-4.4-1.5-4.4-3.5c0-2,1.3-3.5,4.9-3.5h3v-0.2
		c0-1.6-1-2.6-2.9-2.6c-1.3,0-2.7,0.4-3.6,1.2l-1.1-2c1.3-1,3.1-1.5,5-1.5C32.2,54,34.1,55.6,34.1,59z M31.4,62.2v-1.4h-2.8
		c-1.9,0-2.4,0.7-2.4,1.6c0,1,0.8,1.6,2.2,1.6C29.7,64.1,30.9,63.4,31.4,62.2z"/>
	<path class="st1" d="M51.9,59.2v6.7h-2.8v-6.4c0-2.1-1-3.1-2.8-3.1c-2,0-3.3,1.2-3.3,3.5v5.9h-2.8V54.2h2.6v1.5
		c0.9-1.1,2.3-1.7,4-1.7C49.8,54,51.9,55.6,51.9,59.2z"/>
	<path class="st1" d="M69.6,59.2v6.7h-2.8v-6.4c0-2.1-1-3.1-2.8-3.1c-2,0-3.3,1.2-3.3,3.5v5.9H58V54.2h2.6v1.5
		c0.9-1.1,2.3-1.7,4-1.7C67.5,54,69.6,55.6,69.6,59.2z"/>
	<path class="st1" d="M85.5,59v6.9h-2.6v-1.4c-0.7,1-1.9,1.6-3.7,1.6c-2.7,0-4.4-1.5-4.4-3.5c0-2,1.3-3.5,4.9-3.5h3v-0.2
		c0-1.6-1-2.6-2.9-2.6c-1.3,0-2.7,0.4-3.6,1.2l-1.1-2c1.3-1,3.1-1.5,5-1.5C83.6,54,85.5,55.6,85.5,59z M82.8,62.2v-1.4h-2.8
		c-1.9,0-2.4,0.7-2.4,1.6c0,1,0.8,1.6,2.2,1.6C81.2,64.1,82.3,63.4,82.8,62.2z"/>
	<path class="st1" d="M111.4,60.9h-9.2c0.3,1.7,1.8,2.8,3.8,2.8c1.3,0,2.4-0.4,3.2-1.3l1.5,1.7c-1.1,1.3-2.7,1.9-4.7,1.9
		c-3.9,0-6.5-2.5-6.5-6s2.6-6,6.1-6c3.4,0,5.9,2.4,5.9,6.1C111.5,60.3,111.4,60.6,111.4,60.9z M102.2,59.1h6.7
		c-0.2-1.7-1.5-2.9-3.3-2.9C103.7,56.2,102.4,57.4,102.2,59.1z"/>
	<path class="st1" d="M126.2,59v6.9h-2.6v-1.4c-0.7,1-1.9,1.6-3.7,1.6c-2.7,0-4.4-1.5-4.4-3.5c0-2,1.3-3.5,4.9-3.5h3v-0.2
		c0-1.6-1-2.6-2.9-2.6c-1.3,0-2.7,0.4-3.6,1.2l-1.1-2c1.3-1,3.1-1.5,5-1.5C124.3,54,126.2,55.6,126.2,59z M123.5,62.2v-1.4h-2.8
		c-1.9,0-2.4,0.7-2.4,1.6c0,1,0.8,1.6,2.2,1.6C121.9,64.1,123,63.4,123.5,62.2z"/>
	<path class="st1" d="M139.5,65.3c-0.7,0.5-1.7,0.8-2.6,0.8c-2.6,0-4-1.4-4-4v-5.7h-1.9v-2.2h1.9v-2.7h2.8v2.7h3.1v2.2h-3.1V62
		c0,1.1,0.6,1.8,1.6,1.8c0.6,0,1.1-0.2,1.5-0.5L139.5,65.3z"/>
</g>
<g>
	<path class="st2" d="M29.2,78.5h1.6v0.6h-1.6V78.5z"/>
	<path class="st2" d="M33.4,76.3h1.8c1.4,0,2.3,0.8,2.3,2.1c0,1.3-0.9,2.1-2.3,2.1h-1.8V76.3z M35.2,79.9c0.9,0,1.5-0.6,1.5-1.4
		c0-0.9-0.6-1.4-1.5-1.4h-1v2.9H35.2z"/>
	<path class="st2" d="M41.5,79.9v0.7h-3.1v-4.2h3.1V77h-2.3v1.1h2v0.6h-2v1.2H41.5z"/>
	<path class="st2" d="M42.1,78.4c0-1.3,1-2.2,2.2-2.2c0.7,0,1.3,0.2,1.7,0.7l-0.5,0.5c-0.3-0.3-0.7-0.5-1.1-0.5
		c-0.9,0-1.5,0.6-1.5,1.5s0.6,1.5,1.5,1.5c0.4,0,0.8-0.2,1.1-0.5l0.5,0.5c-0.4,0.5-1,0.7-1.7,0.7C43.1,80.6,42.1,79.7,42.1,78.4z"/>
	<path class="st2" d="M46.8,76.3h0.8v4.2h-0.8V76.3z"/>
	<path class="st2" d="M48.7,76.3h1.8c1.4,0,2.3,0.8,2.3,2.1c0,1.3-0.9,2.1-2.3,2.1h-1.8V76.3z M50.5,79.9c0.9,0,1.5-0.6,1.5-1.4
		c0-0.9-0.6-1.4-1.5-1.4h-1v2.9H50.5z"/>
	<path class="st2" d="M56.8,79.9v0.7h-3.1v-4.2h3.1V77h-2.3v1.1h2v0.6h-2v1.2H56.8z"/>
	<path class="st2" d="M65.4,76.3l-1.4,4.2h-0.8l-1-3.1l-1.1,3.1h-0.8l-1.4-4.2h0.8l1,3.2l1.1-3.2h0.7l1.1,3.2l1.1-3.2H65.4z"/>
	<path class="st2" d="M69.8,76.3v4.2H69v-1.8h-2.2v1.8h-0.8v-4.2h0.8v1.7H69v-1.7H69.8z"/>
	<path class="st2" d="M74.1,79.9v0.7h-3.1v-4.2H74V77h-2.3v1.1h2v0.6h-2v1.2H74.1z"/>
	<path class="st2" d="M77.7,80.5l-0.9-1.2c-0.1,0-0.1,0-0.2,0h-0.9v1.2H75v-4.2h1.7c1.1,0,1.8,0.6,1.8,1.5c0,0.6-0.3,1.1-0.9,1.3
		l1,1.4H77.7z M76.7,77h-0.9v1.7h0.9c0.7,0,1-0.3,1-0.8C77.7,77.3,77.3,77,76.7,77z"/>
	<path class="st2" d="M82.5,79.9v0.7h-3.1v-4.2h3.1V77h-2.3v1.1h2v0.6h-2v1.2H82.5z"/>
	<path class="st2" d="M85.9,77h-1.4v-0.7H88V77h-1.4v3.5h-0.8V77z"/>
	<path class="st2" d="M88.3,78.4c0-1.2,1-2.2,2.3-2.2c1.3,0,2.3,0.9,2.3,2.2c0,1.2-1,2.2-2.3,2.2C89.2,80.6,88.3,79.7,88.3,78.4z
		 M92,78.4c0-0.9-0.6-1.5-1.5-1.5s-1.5,0.6-1.5,1.5s0.6,1.5,1.5,1.5S92,79.3,92,78.4z"/>
	<path class="st2" d="M98.4,79.9v0.7h-3.1v-4.2h3.1V77h-2.3v1.1h2v0.6h-2v1.2H98.4z"/>
	<path class="st2" d="M102,79.5h-2.1l-0.4,1h-0.8l1.9-4.2h0.8l1.9,4.2h-0.8L102,79.5z M101.8,78.9l-0.8-1.8l-0.8,1.8H101.8z"/>
	<path class="st2" d="M104.4,77H103v-0.7h3.6V77h-1.4v3.5h-0.8V77z"/>
	<path class="st2" d="M108.6,78.5h1.6v0.6h-1.6V78.5z"/>
</g>
</svg>
